<svg width="512" height="512" viewBox="0 0 512 512" fill="none" xmlns="http://www.w3.org/2000/svg">
  <defs>
    <linearGradient id="brainGradientLarge" x1="0%" y1="0%" x2="100%" y2="100%">
      <stop offset="0%" style="stop-color:#8B5CF6;stop-opacity:1" />
      <stop offset="50%" style="stop-color:#6366F1;stop-opacity:1" />
      <stop offset="100%" style="stop-color:#3B82F6;stop-opacity:1" />
    </linearGradient>
    <linearGradient id="glowGradientLarge" x1="0%" y1="0%" x2="100%" y2="100%">
      <stop offset="0%" style="stop-color:#A78BFA;stop-opacity:0.3" />
      <stop offset="100%" style="stop-color:#60A5FA;stop-opacity:0.3" />
    </linearGradient>
    <filter id="glow">
      <feGaussianBlur stdDeviation="8" result="coloredBlur"/>
      <feMerge>
        <feMergeNode in="coloredBlur"/>
        <feMergeNode in="SourceGraphic"/>
      </feMerge>
    </filter>
  </defs>
  
  <!-- Background circle with glow -->
  <circle cx="256" cy="256" r="240" fill="#0B0B0F"/>
  <circle cx="256" cy="256" r="220" fill="url(#glowGradientLarge)"/>
  
  <!-- Brain outline -->
  <path d="M256 64C216 64 184 88 168 120C144 115.2 120 128 112 152C104 149.6 96 147.2 88 152C72 160 64 176 64 200C64 224 72 240 88 248C84.8 256 80 264 80 280C80 304 96 328 120 336C117.6 344 115.2 352 120 360C128 384 152 400 176 400C184 408 200 416 224 416C248 416 264 408 272 400C280 403.2 288 404.8 296 400C320 392 336 368 336 344C345.6 339.2 354 328 368 312C377.6 316.8 386 312 400 304C416 288 424 264 424 240C424 216 416 192 400 184C403.2 176 404.8 168 400 160C392 136 368 120 344 120C348.8 112 352 104 352 96C352 72 328 64 304 64C288 64 272 72 264 80C260.8 68.8 256 64 256 64Z" 
        fill="url(#brainGradientLarge)" 
        filter="url(#glow)"
        stroke="url(#brainGradientLarge)" 
        stroke-width="4"/>
  
  <!-- Neural network nodes -->
  <g opacity="0.95" filter="url(#glow)">
    <circle cx="176" cy="176" r="20" fill="#A78BFA"/>
    <circle cx="256" cy="160" r="24" fill="#8B5CF6"/>
    <circle cx="336" cy="192" r="20" fill="#6366F1"/>
    <circle cx="208" cy="256" r="22" fill="#60A5FA"/>
    <circle cx="304" cy="272" r="22" fill="#3B82F6"/>
    <circle cx="256" cy="336" r="20" fill="#8B5CF6"/>
    <circle cx="192" cy="320" r="18" fill="#A78BFA"/>
    <circle cx="320" cy="320" r="18" fill="#6366F1"/>
    
    <!-- Connection lines -->
    <line x1="176" y1="176" x2="256" y2="160" stroke="#A78BFA" stroke-width="4" opacity="0.6" stroke-linecap="round"/>
    <line x1="256" y1="160" x2="336" y2="192" stroke="#8B5CF6" stroke-width="4" opacity="0.6" stroke-linecap="round"/>
    <line x1="176" y1="176" x2="208" y2="256" stroke="#6366F1" stroke-width="4" opacity="0.6" stroke-linecap="round"/>
    <line x1="208" y1="256" x2="256" y2="336" stroke="#60A5FA" stroke-width="4" opacity="0.6" stroke-linecap="round"/>
    <line x1="336" y1="192" x2="304" y2="272" stroke="#3B82F6" stroke-width="4" opacity="0.6" stroke-linecap="round"/>
    <line x1="304" y1="272" x2="256" y2="336" stroke="#8B5CF6" stroke-width="4" opacity="0.6" stroke-linecap="round"/>
    <line x1="256" y1="160" x2="208" y2="256" stroke="#A78BFA" stroke-width="3" opacity="0.4" stroke-linecap="round"/>
    <line x1="208" y1="256" x2="304" y2="272" stroke="#6366F1" stroke-width="3" opacity="0.5" stroke-linecap="round"/>
    <line x1="192" y1="320" x2="256" y2="336" stroke="#60A5FA" stroke-width="3" opacity="0.5" stroke-linecap="round"/>
    <line x1="256" y1="336" x2="320" y2="320" stroke="#3B82F6" stroke-width="3" opacity="0.5" stroke-linecap="round"/>
    <line x1="304" y1="272" x2="320" y2="320" stroke="#8B5CF6" stroke-width="3" opacity="0.5" stroke-linecap="round"/>
  </g>
  
  <!-- Highlight dots for extra AI feel -->
  <circle cx="256" cy="160" r="6" fill="#FFFFFF" opacity="0.9"/>
  <circle cx="208" cy="256" r="5" fill="#FFFFFF" opacity="0.8"/>
  <circle cx="304" cy="272" r="5" fill="#FFFFFF" opacity="0.8"/>
</svg>

