<svg width="32" height="32" viewBox="0 0 32 32" fill="none" xmlns="http://www.w3.org/2000/svg">
  <defs>
    <linearGradient id="brainGradient" x1="0%" y1="0%" x2="100%" y2="100%">
      <stop offset="0%" style="stop-color:#8B5CF6;stop-opacity:1" />
      <stop offset="50%" style="stop-color:#6366F1;stop-opacity:1" />
      <stop offset="100%" style="stop-color:#3B82F6;stop-opacity:1" />
    </linearGradient>
    <linearGradient id="glowGradient" x1="0%" y1="0%" x2="100%" y2="100%">
      <stop offset="0%" style="stop-color:#A78BFA;stop-opacity:0.8" />
      <stop offset="100%" style="stop-color:#60A5FA;stop-opacity:0.8" />
    </linearGradient>
  </defs>
  
  <!-- Glow effect -->
  <circle cx="16" cy="16" r="14" fill="url(#glowGradient)" opacity="0.3"/>
  
  <!-- Brain shape -->
  <path d="M16 4C13.5 4 11.5 5.5 10.5 7.5C9 7.2 7.5 8 7 9.5C6.5 9.3 6 9.2 5.5 9.5C4.5 10 4 11 4 12.5C4 14 4.5 15 5.5 15.5C5.2 16 5 16.5 5 17.5C5 19 6 20.5 7.5 21C7.3 21.5 7.2 22 7.5 22.5C8 24 9.5 25 11 25C11.5 25.5 12.5 26 14 26C15.5 26 16.5 25.5 17 25C17.5 25.2 18 25.3 18.5 25C20 24.5 21 23 21 21.5C21.8 21.2 22.5 20.5 23 19.5C23.8 19.8 24.5 19.5 25 19C26 18 26.5 16.5 26.5 15C26.5 13.5 26 12 25 11.5C25.2 11 25.3 10.5 25 10C24.5 8.5 23 7.5 21.5 7.5C21.8 7 22 6.5 22 6C22 4.5 20.5 4 19 4C18 4 17 4.5 16.5 5C16.3 4.3 16 4 16 4Z" 
        fill="url(#brainGradient)" 
        stroke="url(#brainGradient)" 
        stroke-width="0.5"/>
  
  <!-- Neural connections -->
  <g opacity="0.9">
    <circle cx="11" cy="11" r="1.5" fill="#A78BFA"/>
    <circle cx="16" cy="10" r="1.5" fill="#8B5CF6"/>
    <circle cx="21" cy="12" r="1.5" fill="#6366F1"/>
    <circle cx="13" cy="16" r="1.5" fill="#60A5FA"/>
    <circle cx="19" cy="17" r="1.5" fill="#3B82F6"/>
    <circle cx="16" cy="21" r="1.5" fill="#8B5CF6"/>
    
    <!-- Connection lines -->
    <line x1="11" y1="11" x2="16" y2="10" stroke="#A78BFA" stroke-width="0.8" opacity="0.5"/>
    <line x1="16" y1="10" x2="21" y2="12" stroke="#8B5CF6" stroke-width="0.8" opacity="0.5"/>
    <line x1="11" y1="11" x2="13" y2="16" stroke="#6366F1" stroke-width="0.8" opacity="0.5"/>
    <line x1="13" y1="16" x2="16" y2="21" stroke="#60A5FA" stroke-width="0.8" opacity="0.5"/>
    <line x1="21" y1="12" x2="19" y2="17" stroke="#3B82F6" stroke-width="0.8" opacity="0.5"/>
    <line x1="19" y1="17" x2="16" y2="21" stroke="#8B5CF6" stroke-width="0.8" opacity="0.5"/>
    <line x1="16" y1="10" x2="13" y2="16" stroke="#A78BFA" stroke-width="0.8" opacity="0.4"/>
  </g>
</svg>

